<svg width="41" height="41" viewBox="0 0 41 41" fill="none" xmlns="http://www.w3.org/2000/svg">
<g clip-path="url(#clip0_1_129)">
<path d="M40.6733 25.7603C40.5503 25.5908 37.6106 21.6111 33.0118 20.5601C29.2302 19.6991 25.6017 21.1068 24.3294 21.6876C24.3526 21.5195 24.3813 21.3528 24.3813 21.1779C24.3813 20.6872 24.2802 20.2226 24.1094 19.7921C25.584 19.7524 29.3341 19.4121 32.2998 17.0464C35.9884 14.1067 36.9109 9.24276 36.9478 9.03776C36.9765 8.88196 36.9355 8.72206 36.8371 8.59906C36.7387 8.47606 36.5911 8.4009 36.4339 8.39406C36.2248 8.3804 31.2789 8.2 27.5916 11.1424C24.7189 13.433 23.5271 16.8797 23.1212 18.394C22.6675 17.9867 22.1181 17.686 21.5059 17.5384C22.4325 16.2866 24.4004 13.1965 24.4004 9.50926C24.4004 4.7929 21.1724 1.04003 21.0357 0.881498C20.8294 0.643698 20.4193 0.643698 20.2116 0.881498C20.0736 1.03866 16.8469 4.79153 16.8469 9.50926C16.8469 13.1965 18.8135 16.2852 19.7401 17.5384C19.1156 17.6901 18.5566 17.9976 18.0974 18.4172C17.7393 17.0095 16.5667 13.3674 13.5806 10.9866C9.89192 8.04556 4.94595 8.22596 4.73822 8.23826C4.57969 8.2451 4.43345 8.32026 4.33505 8.44326C4.23665 8.56626 4.19565 8.72616 4.22435 8.88196C4.26125 9.08696 5.18375 13.9496 8.87102 16.8906C11.9392 19.3383 15.8465 19.6185 17.205 19.6404C16.9918 20.1119 16.866 20.6298 16.866 21.1806C16.866 21.3268 16.8934 21.4649 16.9084 21.6056C15.9203 21.1246 12.0417 19.4381 7.98815 20.3661C3.38932 21.4157 0.448252 25.3954 0.326619 25.5649C0.233686 25.6933 0.200886 25.8546 0.235052 26.0077C0.270586 26.1607 0.370352 26.2933 0.509752 26.3685C0.660086 26.4491 3.59979 28.0016 7.17498 28.0016C7.98269 28.0016 8.82182 27.921 9.66915 27.7283C13.7924 26.788 16.5763 23.4985 17.1968 22.7058C17.4879 23.3563 17.9539 23.9112 18.5402 24.3034C17.9525 24.5672 13.7774 26.5543 11.8353 30.5846C9.78805 34.835 11.0673 39.6156 11.1233 39.8178C11.1657 39.9695 11.2709 40.0966 11.413 40.165C11.4882 40.2005 11.5688 40.2196 11.6495 40.2196C11.7233 40.2196 11.7957 40.2046 11.8654 40.1759C12.0567 40.0925 16.5927 38.1109 18.64 33.8633C20.5779 29.8398 19.5351 25.3448 19.3725 24.7066C19.7661 24.846 20.1829 24.9376 20.623 24.9376C20.9196 24.9376 21.2052 24.8938 21.4826 24.8282C21.2927 25.5854 20.3182 29.9956 22.2233 33.9494C24.2706 38.1983 28.8052 40.1814 28.9979 40.2634C29.0662 40.2921 29.14 40.3071 29.2125 40.3071C29.2945 40.3071 29.3751 40.288 29.4503 40.2524C29.5924 40.1841 29.699 40.057 29.74 39.9053C29.7947 39.7044 31.0752 34.9224 29.028 30.6707C27.3019 27.0873 23.8141 25.1234 22.647 24.544C22.6197 24.4866 22.5869 24.4333 22.5431 24.3909C23.1049 24.0533 23.5641 23.5764 23.8866 23.0051C24.6478 23.9522 27.3729 27.0217 31.3308 27.9251C32.1781 28.1192 33.0173 28.1984 33.825 28.1984C37.4002 28.1984 40.3399 26.6445 40.4902 26.5653C40.6296 26.4901 40.7294 26.3589 40.7635 26.2045C40.8004 26.05 40.7663 25.8874 40.6733 25.7603ZM9.42588 26.6623C6.17595 27.403 2.94379 26.2537 1.63452 25.6879C2.56932 24.6096 4.98422 22.1728 8.23142 21.4307C10.88 20.8266 13.4958 21.4758 15.0907 22.0443L11.4103 23.0625C11.1192 23.1445 10.9484 23.4438 11.029 23.7349C11.096 23.9782 11.316 24.1367 11.5565 24.1367C11.6044 24.1367 11.6536 24.1299 11.7014 24.1162L15.3723 23.1008C14.1874 24.3062 12.0964 26.0514 9.42588 26.6623ZM17.6546 33.3863C16.2087 36.3875 13.2936 38.1983 12.0349 38.8707C11.7738 37.4713 11.3707 34.0683 12.8207 31.0589C13.9865 28.6399 16.0925 27.0081 17.5302 26.1088L15.9189 29.4913C15.7891 29.7633 15.9053 30.0899 16.1772 30.2197C16.2524 30.2553 16.333 30.273 16.4109 30.273C16.6159 30.273 16.8114 30.1569 16.9057 29.9601L18.573 26.46C18.7821 28.1301 18.86 30.8853 17.6546 33.3863ZM28.2722 11.9966C30.8757 9.91926 34.2883 9.553 35.7137 9.49286C35.3392 10.8705 34.2213 14.1149 31.6178 16.1909C29.3806 17.9744 26.5571 18.4951 24.8979 18.6441L27.8868 16.0474C28.1137 15.8492 28.1397 15.5048 27.9401 15.2766C27.7406 15.047 27.3975 15.0224 27.1693 15.2219L24.5645 17.4851C25.1453 15.8889 26.2632 13.5997 28.2722 11.9966ZM20.623 2.13063C21.4662 3.28136 23.3057 6.17733 23.3057 9.50926C23.3057 12.2248 22.0894 14.6329 21.1806 16.0611L21.2394 11.8381C21.2435 11.536 21.0029 11.2887 20.6995 11.2846C20.6968 11.2846 20.6954 11.2846 20.6927 11.2846C20.3948 11.2846 20.1501 11.5237 20.146 11.8244L20.0873 16.0966C19.1771 14.6739 17.9402 12.2481 17.9402 9.51063C17.9389 6.1787 19.7798 3.28136 20.623 2.13063ZM5.45709 9.33706C6.87979 9.39446 10.2869 9.758 12.8986 11.8408C15.0415 13.5491 16.1677 16.0337 16.7116 17.6327L13.4084 15.1973C13.1651 15.0169 12.8234 15.0702 12.6444 15.3121C12.4654 15.5554 12.5173 15.8971 12.7592 16.0761L15.9927 18.4596C14.3117 18.2805 11.6782 17.7298 9.55298 16.0351C6.94675 13.9578 5.83155 10.7119 5.45709 9.33706ZM28.044 31.145C29.4899 34.1475 29.0881 37.556 28.8271 38.9596C27.5697 38.2899 24.6574 36.4832 23.2087 33.4724C22.0607 31.0876 22.0812 28.4622 22.2671 26.7744L23.2743 29.7195C23.3536 29.9464 23.5654 30.0899 23.7923 30.0899C23.851 30.0899 23.9112 30.0803 23.9699 30.0612C24.2556 29.9628 24.4073 29.6512 24.3102 29.3656L23.1964 26.1088C24.6314 26.9862 26.84 28.6467 28.044 31.145ZM20.623 23.8401C19.1538 23.8401 17.9594 22.6457 17.9594 21.1779C17.9594 19.7087 19.1538 18.5142 20.623 18.5142C22.0908 18.5142 23.2852 19.7087 23.2852 21.1779C23.2852 22.6457 22.0908 23.8401 20.623 23.8401ZM31.5741 26.8577C28.8927 26.2455 26.7935 24.4838 25.6113 23.2784L29.2015 24.6287C29.2644 24.6533 29.33 24.6642 29.3942 24.6642C29.6156 24.6642 29.8234 24.5276 29.9054 24.3089C30.012 24.026 29.8699 23.7103 29.587 23.6051L25.9311 22.2302C27.5274 21.6644 30.1322 21.0221 32.7685 21.6248C36.0171 22.3669 38.432 24.805 39.3654 25.8819C38.0589 26.4505 34.8336 27.5998 31.5741 26.8577Z" fill="#FFA2CC"/>
<path d="M20.6927 19.2536C20.8655 19.2536 21.0057 19.1135 21.0057 18.9406C21.0057 18.7678 20.8655 18.6277 20.6927 18.6277C20.5199 18.6277 20.3797 18.7678 20.3797 18.9406C20.3797 19.1135 20.5199 19.2536 20.6927 19.2536Z" fill="#FFA2CC"/>
<path d="M20.1597 20.403C20.3326 20.403 20.4727 20.2628 20.4727 20.09C20.4727 19.9172 20.3326 19.777 20.1597 19.777C19.9869 19.777 19.8467 19.9172 19.8467 20.09C19.8467 20.2628 19.9869 20.403 20.1597 20.403Z" fill="#FFA2CC"/>
<path d="M22.6621 21.2667C22.8349 21.2667 22.975 21.1266 22.975 20.9537C22.975 20.7809 22.8349 20.6408 22.6621 20.6408C22.4892 20.6408 22.3491 20.7809 22.3491 20.9537C22.3491 21.1266 22.4892 21.2667 22.6621 21.2667Z" fill="#FFA2CC"/>
<path d="M18.6263 22.2425C18.7991 22.2425 18.9393 22.1024 18.9393 21.9295C18.9393 21.7567 18.7991 21.6166 18.6263 21.6166C18.4534 21.6166 18.3133 21.7567 18.3133 21.9295C18.3133 22.1024 18.4534 22.2425 18.6263 22.2425Z" fill="#FFA2CC"/>
<path d="M21.007 22.002C21.1799 22.002 21.32 21.8618 21.32 21.689C21.32 21.5162 21.1799 21.376 21.007 21.376C20.8342 21.376 20.6941 21.5162 20.6941 21.689C20.6941 21.8618 20.8342 22.002 21.007 22.002Z" fill="#FFA2CC"/>
<path d="M21.7054 23.1103C21.8782 23.1103 22.0184 22.9702 22.0184 22.7974C22.0184 22.6245 21.8782 22.4844 21.7054 22.4844C21.5325 22.4844 21.3924 22.6245 21.3924 22.7974C21.3924 22.9702 21.5325 23.1103 21.7054 23.1103Z" fill="#FFA2CC"/>
<path d="M20.936 20.403C21.1088 20.403 21.2489 20.2628 21.2489 20.09C21.2489 19.9172 21.1088 19.777 20.936 19.777C20.7631 19.777 20.623 19.9172 20.623 20.09C20.623 20.2628 20.7631 20.403 20.936 20.403Z" fill="#FFA2CC"/>
<path d="M20.936 21.1492C21.1088 21.1492 21.2489 21.009 21.2489 20.8362C21.2489 20.6634 21.1088 20.5232 20.936 20.5232C20.7631 20.5232 20.623 20.6634 20.623 20.8362C20.623 21.009 20.7631 21.1492 20.936 21.1492Z" fill="#FFA2CC"/>
<path d="M21.7054 21.2667C21.8782 21.2667 22.0184 21.1266 22.0184 20.9537C22.0184 20.7809 21.8782 20.6408 21.7054 20.6408C21.5325 20.6408 21.3924 20.7809 21.3924 20.9537C21.3924 21.1266 21.5325 21.2667 21.7054 21.2667Z" fill="#FFA2CC"/>
<path d="M21.8245 19.3648C21.8453 19.1932 21.7232 19.0372 21.5516 19.0163C21.38 18.9955 21.224 19.1177 21.2031 19.2893C21.1823 19.4608 21.3044 19.6168 21.476 19.6377C21.6476 19.6586 21.8036 19.5364 21.8245 19.3648Z" fill="#FFA2CC"/>
<path d="M20.0717 19.1347C20.0926 18.9632 19.9704 18.8072 19.7988 18.7863C19.6272 18.7654 19.4712 18.8876 19.4504 19.0592C19.4295 19.2308 19.5517 19.3868 19.7233 19.4077C19.8949 19.4285 20.0509 19.3063 20.0717 19.1347Z" fill="#FFA2CC"/>
<path d="M22.2439 22.0976C22.4167 22.0976 22.5568 21.9575 22.5568 21.7847C22.5568 21.6118 22.4167 21.4717 22.2439 21.4717C22.071 21.4717 21.9309 21.6118 21.9309 21.7847C21.9309 21.9575 22.071 22.0976 22.2439 22.0976Z" fill="#FFA2CC"/>
<path d="M22.2439 20.403C22.4167 20.403 22.5568 20.2628 22.5568 20.09C22.5568 19.9172 22.4167 19.777 22.2439 19.777C22.071 19.777 21.9309 19.9172 21.9309 20.09C21.9309 20.2628 22.071 20.403 22.2439 20.403Z" fill="#FFA2CC"/>
<path d="M19.7839 21.1492C19.9567 21.1492 20.0968 21.009 20.0968 20.8362C20.0968 20.6634 19.9567 20.5232 19.7839 20.5232C19.611 20.5232 19.4709 20.6634 19.4709 20.8362C19.4709 21.009 19.611 21.1492 19.7839 21.1492Z" fill="#FFA2CC"/>
<path d="M20.0982 21.9295C20.2711 21.9295 20.4112 21.7894 20.4112 21.6166C20.4112 21.4437 20.2711 21.3036 20.0982 21.3036C19.9254 21.3036 19.7852 21.4437 19.7852 21.6166C19.7852 21.7894 19.9254 21.9295 20.0982 21.9295Z" fill="#FFA2CC"/>
<path d="M19.4463 22.4844C19.6191 22.4844 19.7593 22.3443 19.7593 22.1714C19.7593 21.9986 19.6191 21.8585 19.4463 21.8585C19.2735 21.8585 19.1333 21.9986 19.1333 22.1714C19.1333 22.3443 19.2735 22.4844 19.4463 22.4844Z" fill="#FFA2CC"/>
<path d="M19.3821 20.0886C19.5549 20.0886 19.695 19.9485 19.695 19.7757C19.695 19.6028 19.5549 19.4627 19.3821 19.4627C19.2092 19.4627 19.0691 19.6028 19.0691 19.7757C19.0691 19.9485 19.2092 20.0886 19.3821 20.0886Z" fill="#FFA2CC"/>
<path d="M18.7561 20.403C18.929 20.403 19.0691 20.2628 19.0691 20.09C19.0691 19.9172 18.929 19.777 18.7561 19.777C18.5833 19.777 18.4432 19.9172 18.4432 20.09C18.4432 20.2628 18.5833 20.403 18.7561 20.403Z" fill="#FFA2CC"/>
<path d="M20.813 23.0461C20.9858 23.0461 21.1259 22.906 21.1259 22.7331C21.1259 22.5603 20.9858 22.4202 20.813 22.4202C20.6401 22.4202 20.5 22.5603 20.5 22.7331C20.5 22.906 20.6401 23.0461 20.813 23.0461Z" fill="#FFA2CC"/>
<path d="M19.7606 23.5436C19.9335 23.5436 20.0736 23.4034 20.0736 23.2306C20.0736 23.0578 19.9335 22.9176 19.7606 22.9176C19.5878 22.9176 19.4477 23.0578 19.4477 23.2306C19.4477 23.4034 19.5878 23.5436 19.7606 23.5436Z" fill="#FFA2CC"/>
<path d="M18.7561 21.2667C18.929 21.2667 19.0691 21.1266 19.0691 20.9537C19.0691 20.7809 18.929 20.6408 18.7561 20.6408C18.5833 20.6408 18.4432 20.7809 18.4432 20.9537C18.4432 21.1266 18.5833 21.2667 18.7561 21.2667Z" fill="#FFA2CC"/>
</g>
<defs>
<clipPath id="clip0_1_129">
<rect width="41" height="41" fill="white"/>
</clipPath>
</defs>
</svg>
